<?xml version="1.0" encoding="UTF-8"?>
<svg xmlns="http://www.w3.org/2000/svg" xmlns:xlink="http://www.w3.org/1999/xlink" width="48px" height="48px" viewBox="0 0 48 54" version="1.1">
<g id="surface1">
<path style=" stroke:none;fill-rule:nonzero;fill:rgb(63.137257%,47.450981%,86.274511%);fill-opacity:1;" d="M 47.917969 15.835938 C 47.917969 14.929688 47.726562 14.128906 47.332031 13.441406 C 46.949219 12.765625 46.371094 12.199219 45.601562 11.753906 C 39.21875 8.074219 32.835938 4.40625 26.457031 0.726562 C 24.738281 -0.269531 23.070312 -0.230469 21.363281 0.773438 C 18.824219 2.273438 6.109375 9.558594 2.320312 11.75 C 0.761719 12.652344 0.00390625 14.035156 0.00390625 15.832031 C 0 23.230469 0.00390625 30.628906 0 38.027344 C 0 38.914062 0.1875 39.695312 0.558594 40.375 C 0.945312 41.070312 1.53125 41.652344 2.320312 42.109375 C 6.109375 44.304688 18.824219 51.585938 21.363281 53.085938 C 23.070312 54.089844 24.738281 54.128906 26.457031 53.132812 C 32.835938 49.453125 39.222656 45.785156 45.601562 42.105469 C 46.390625 41.648438 46.976562 41.066406 47.363281 40.371094 C 47.734375 39.695312 47.921875 38.910156 47.921875 38.023438 C 47.921875 38.023438 47.921875 23.234375 47.917969 15.835938 "/>
<path style=" stroke:none;fill-rule:nonzero;fill:rgb(15.686275%,0%,40.784314%);fill-opacity:1;" d="M 24.035156 26.859375 L 0.558594 40.375 C 0.945312 41.070312 1.53125 41.652344 2.320312 42.109375 C 6.109375 44.304688 18.824219 51.585938 21.363281 53.085938 C 23.070312 54.089844 24.738281 54.128906 26.457031 53.132812 C 32.835938 49.453125 39.222656 45.785156 45.601562 42.105469 C 46.390625 41.648438 46.976562 41.066406 47.363281 40.371094 L 24.035156 26.859375 "/>
<path style=" stroke:none;fill-rule:nonzero;fill:rgb(22.352941%,0%,56.862748%);fill-opacity:1;" d="M 47.917969 15.835938 C 47.917969 14.929688 47.726562 14.128906 47.332031 13.441406 L 24.035156 26.859375 L 47.363281 40.371094 C 47.734375 39.695312 47.921875 38.910156 47.921875 38.023438 C 47.921875 38.023438 47.921875 23.234375 47.917969 15.835938 "/>
<path style=" stroke:none;fill-rule:nonzero;fill:rgb(100%,100%,100%);fill-opacity:1;" d="M 37.855469 21.804688 L 37.855469 24.332031 L 40.382812 24.332031 L 40.382812 21.804688 L 41.644531 21.804688 L 41.644531 24.332031 L 44.171875 24.332031 L 44.171875 25.59375 L 41.644531 25.59375 L 41.644531 28.121094 L 44.171875 28.121094 L 44.171875 29.382812 L 41.644531 29.382812 L 41.644531 31.910156 L 40.382812 31.910156 L 40.382812 29.382812 L 37.855469 29.382812 L 37.855469 31.910156 L 36.589844 31.910156 L 36.589844 29.382812 L 34.066406 29.382812 L 34.066406 28.121094 L 36.589844 28.121094 L 36.589844 25.59375 L 34.066406 25.59375 L 34.066406 24.332031 L 36.589844 24.332031 L 36.589844 21.804688 Z M 40.382812 25.59375 L 37.855469 25.59375 L 37.855469 28.121094 L 40.382812 28.121094 Z M 40.382812 25.59375 "/>
<path style=" stroke:none;fill-rule:nonzero;fill:rgb(100%,100%,100%);fill-opacity:1;" d="M 24.085938 9.117188 C 30.675781 9.117188 36.429688 12.695312 39.507812 18.015625 L 39.480469 17.964844 L 31.726562 22.429688 C 30.199219 19.84375 27.398438 18.097656 24.1875 18.0625 L 24.085938 18.058594 C 19.1875 18.058594 15.214844 22.03125 15.214844 26.929688 C 15.214844 28.53125 15.644531 30.035156 16.386719 31.332031 C 17.914062 34 20.789062 35.800781 24.085938 35.800781 C 27.402344 35.800781 30.292969 33.976562 31.816406 31.277344 L 31.777344 31.34375 L 39.519531 35.828125 C 36.472656 41.101562 30.796875 44.671875 24.285156 44.742188 L 24.085938 44.742188 C 17.476562 44.742188 11.707031 41.140625 8.632812 35.792969 C 7.132812 33.183594 6.273438 30.15625 6.273438 26.929688 C 6.273438 17.09375 14.246094 9.117188 24.085938 9.117188 Z M 24.085938 9.117188 "/>
</g>
</svg>
