<?xml version="1.0" standalone="no"?>
<!DOCTYPE svg PUBLIC "-//W3C//DTD SVG 20010904//EN"
 "http://www.w3.org/TR/2001/REC-SVG-20010904/DTD/svg10.dtd">
<svg version="1.0" xmlns="http://www.w3.org/2000/svg"
 width="460.000000pt" height="460.000000pt" viewBox="0 0 460.000000 460.000000"
 preserveAspectRatio="xMidYMid meet">

<g transform="translate(0.000000,460.000000) scale(0.100000,-0.100000)"
fill="#000000" stroke="none">
<path d="M0 2300 l0 -2300 2300 0 2300 0 0 2300 0 2300 -2300 0 -2300 0 0
-2300z m2327 902 c6 -4 25 -25 42 -46 54 -68 43 -109 -80 -318 -19 -31 -47
-80 -64 -110 -16 -29 -44 -78 -61 -108 -17 -30 -45 -77 -63 -104 -17 -28 -31
-53 -31 -58 0 -4 -10 -22 -23 -41 -13 -19 -36 -59 -51 -89 -43 -86 -97 -151
-133 -161 -17 -5 -52 -6 -78 -3 -41 7 -50 12 -76 54 -16 25 -29 59 -29 75 0
31 41 119 91 197 16 25 33 56 39 69 6 14 31 57 55 96 25 40 45 75 45 80 0 4
15 31 34 59 18 28 49 79 67 114 68 127 80 148 120 209 22 35 52 70 67 78 29
15 109 20 129 7z m1483 -7 c37 -19 70 -74 70 -117 0 -35 -52 -146 -104 -222
-14 -21 -26 -43 -26 -48 0 -6 -9 -22 -20 -37 -10 -15 -34 -57 -53 -92 -19 -35
-48 -88 -65 -116 -73 -121 -96 -161 -128 -220 -41 -74 -78 -132 -100 -155 -33
-34 -139 -34 -173 0 -62 60 -66 118 -16 203 19 33 35 63 35 67 0 4 14 27 31
52 16 25 46 74 65 110 19 36 61 110 94 165 33 55 66 115 75 133 8 17 31 57 50
87 20 30 39 65 44 77 14 35 58 89 88 110 34 22 94 23 133 3z m-2440 -598 c35
-18 70 -74 70 -114 0 -34 -41 -120 -121 -255 -35 -58 -70 -119 -127 -223 -19
-33 -41 -71 -50 -85 -17 -25 -31 -50 -107 -191 -22 -40 -61 -95 -86 -121 -40
-42 -51 -48 -87 -48 -23 0 -53 5 -67 12 -31 14 -75 87 -75 125 0 33 43 124 94
203 20 30 36 59 36 65 0 5 18 37 40 70 22 33 40 65 40 70 0 6 20 42 45 80 25
39 45 74 45 78 0 5 16 32 35 61 19 28 40 65 47 81 7 17 20 41 29 55 9 14 31
48 49 77 19 30 44 56 59 62 37 14 102 13 131 -2z m1474 3 c33 -12 76 -81 76
-121 0 -30 -62 -157 -115 -234 -14 -21 -25 -42 -25 -47 0 -6 -8 -22 -19 -36
-10 -15 -32 -52 -48 -83 -16 -31 -46 -82 -66 -115 -20 -32 -47 -78 -59 -101
-13 -23 -36 -66 -52 -95 -61 -113 -115 -186 -148 -197 -63 -22 -97 -15 -144
33 -60 59 -60 96 0 211 25 47 53 97 64 112 11 16 34 55 51 88 35 66 113 200
148 255 13 19 23 40 23 46 0 6 8 22 19 35 10 13 31 49 46 79 41 78 104 168
124 173 31 9 100 7 125 -3z"/>
</g>
</svg>
