<?xml version="1.0" encoding="UTF-8"?>
<svg xmlns="http://www.w3.org/2000/svg" xmlns:xlink="http://www.w3.org/1999/xlink" width="48px" height="48px" viewBox="0 0 48 48" version="1.1">
<defs>
<clipPath id="clip1">
  <path d="M 0 0 L 48 0 L 48 47.128906 L 0 47.128906 Z M 0 0 "/>
</clipPath>
</defs>
<g id="surface1">
<g clip-path="url(#clip1)" clip-rule="nonzero">
<path style=" stroke:none;fill-rule:evenodd;fill:rgb(21.960784%,74.117649%,97.254902%);fill-opacity:1;" d="M 24 0 C 17.601562 0 13.601562 5.238281 12 15.710938 C 14.398438 10.472656 17.199219 8.507812 20.398438 9.816406 C 22.226562 10.5625 23.53125 12.734375 24.976562 15.132812 C 27.328125 19.039062 30.050781 23.5625 36 23.5625 C 42.398438 23.5625 46.398438 18.328125 48 7.855469 C 45.601562 13.089844 42.800781 15.054688 39.601562 13.746094 C 37.773438 13 36.46875 10.832031 35.023438 8.433594 C 32.671875 4.523438 29.949219 0 24 0 Z M 12 23.5625 C 5.601562 23.5625 1.601562 28.800781 0 39.273438 C 2.398438 34.035156 5.199219 32.074219 8.398438 33.382812 C 10.226562 34.128906 11.53125 36.296875 12.976562 38.695312 C 15.328125 42.605469 18.050781 47.128906 24 47.128906 C 30.398438 47.128906 34.398438 41.890625 36 31.417969 C 33.601562 36.65625 30.800781 38.617188 27.601562 37.308594 C 25.773438 36.5625 24.46875 34.394531 23.023438 31.996094 C 20.671875 28.085938 17.949219 23.5625 12 23.5625 Z M 12 23.5625 "/>
</g>
</g>
</svg>
